<!-- Generator: Adobe Illustrator 21.0.0, SVG Export Plug-In  -->
<svg version="1.1"
	 xmlns="http://www.w3.org/2000/svg" xmlns:xlink="http://www.w3.org/1999/xlink" xmlns:a="http://ns.adobe.com/AdobeSVGViewerExtensions/3.0/"
	 x="0px" y="0px" width="1102px" height="51.87px" viewBox="0 0 1102 51.87" style="enable-background:new 0 0 1102 51.87;"
	 xml:space="preserve">
<style type="text/css">
	.st0{fill:#EA3732;}
	.st1{fill:#490500;}
</style>
<defs>
</defs>
<g id="XMLID_1_">
	<path id="XMLID_150_" class="st0" d="M26,0.05v26h12v-26H26z M0,26.05h12v-26H0V26.05z"/>
	<polygon id="XMLID_149_" class="st1" points="354.94,51.05 341.82,51.05 339.46,44.05 323.77,44.05 321.26,51.05 308.15,51.05 
		317.38,26.05 329.75,26.05 327.28,33.05 336.16,33.05 333.84,26.05 345.7,26.05 	"/>
	<path id="XMLID_148_" class="st1" d="M26,26.05h12v7.48c0,11.18-8.47,18.34-19.07,18.34C8.32,51.87,0,44.71,0,33.53v-7.48h12v7.19
		c0,4.73,2.77,7.46,6.93,7.46c4.15,0,7.07-2.73,7.07-7.46V26.05z"/>
	<polygon id="XMLID_147_" class="st1" points="170.74,26.05 187.98,26.05 186,30.66 186,51.05 173,51.05 173,30.66 	"/>
	<rect id="XMLID_146_" x="48" y="26.05" class="st1" width="12" height="25"/>
	<rect id="XMLID_145_" x="130" y="26.05" class="st1" width="13" height="25"/>
	<polygon id="XMLID_144_" class="st1" points="75,26.05 88,26.05 88,51.05 76.79,51.05 60.62,26.05 75.19,26.05 75,26.08 	"/>
	<path id="XMLID_143_" class="st1" d="M253.75,26.05c1.84,2.52,2.59,5.82,2.59,9.77c0,10.39-8.95,16.05-19.7,16.05
		c-7.81,0-14.19-1.43-19.35-6.73l8.03-8.03c2.65,2.65,7.31,3.59,11.39,3.59c4.95,0,7.31-1.65,7.31-4.59c0-1.22-0.29-2.22-1-3.01
		c-0.65-0.64-1.72-1.15-3.37-1.36l-6.16-0.86c-4.52-0.65-7.96-2.15-10.25-4.51c-0.1-0.1-0.2-0.21-0.29-0.32H253.75z"/>
	<polygon id="XMLID_142_" class="st1" points="265,26.05 303,26.05 303,51.05 290,51.05 290,31.05 277,31.05 277,51.05 265,51.05 	
		"/>
	<rect id="XMLID_141_" x="98" y="26.05" class="st1" width="13" height="25"/>
	<path id="XMLID_138_" class="st0" d="M75,0.05v26h13v-26H75z M48,0.05v26h12v-0.26l0.62,0.26h14.57l-16.31-26H48z"/>
	<path id="XMLID_136_" class="st0" d="M98,0.05v26h13v-26H98z"/>
	<path id="XMLID_130_" class="st0" d="M118,0.05v12h12v14h13v-14h13v-12H118z"/>
	<path id="XMLID_117_" class="st0" d="M187.35,0.05l-7.96,18.34l-8.02-18.34h-13.69l13.06,26h17.24l13.05-26H187.35z"/>
	<path id="XMLID_108_" class="st0" d="M242.52,20.42l-6.17-0.86c-1.79-0.22-2.86-0.86-3.51-1.51c-0.79-0.79-1-1.72-1-2.36
		c0-2.22,1.79-4.73,6.16-4.73c2.22,0,6.45-0.22,9.67,3.01l7.89-7.88C251.19,1.72,245.67,0,238.36,0c-11.61,0-18.63,6.8-18.63,16.12
		c0,4.18,1.05,7.52,3.22,9.93h30.8c-0.35-0.5-0.75-0.97-1.2-1.4C250.4,22.5,247.1,21.06,242.52,20.42z"/>
	<path id="XMLID_106_" class="st0" d="M290,0.05v20h-13v-20h-12v26h38v-26H290z"/>
	<path id="XMLID_104_" class="st0" d="M336.38,0.05h-9.68l-9.32,26h12.37l2.11-6.28l1.98,6.28h11.86L336.38,0.05z"/>
	<path id="XMLID_102_" class="st0" d="M392.735,5.25c-3.51-3.51-8.425-5.2-13.725-5.2H360v26h13v-14h5.15
		c3.15,0,5.105,0.925,6.255,2.645c1,1.43,1.595,2.645,1.595,11.235v0.12h12v-0.12C398,17.91,398.675,11.2,392.735,5.25z"/>
	<path id="XMLID_101_" class="st1" d="M542.23,29.965l11.03,21.085h-14.54l-9.03-19H525v19h-12v-25h34.36
		C545.86,27.91,544.02,29.075,542.23,29.965z"/>
	<rect id="XMLID_100_" x="736" y="26.05" class="st1" width="13" height="25"/>
	<polygon id="XMLID_99_" class="st1" points="705,40.05 727,40.05 727,51.05 693,51.05 693,26.05 724,26.05 724,31.05 705,31.05 	
		"/>
	<polygon id="XMLID_98_" class="st1" points="419,40.05 441,40.05 441,51.05 407,51.05 407,26.05 438,26.05 438,31.05 419,31.05 	
		"/>
	<path id="XMLID_97_" class="st1" d="M479.61,29.965l11.03,21.085H476.1l-9.03-19H463v19h-13v-25h34.74
		C483.24,27.91,481.4,29.075,479.61,29.965z"/>
	<polygon id="XMLID_93_" class="st1" points="572,40.05 594,40.05 594,51.05 560,51.05 560,26.05 591,26.05 591,31.05 572,31.05 	
		"/>
	<path id="XMLID_83_" class="st1" d="M398.07,26.05c0.01,7.98,0.61,14.265-5.3,20.185c-3.51,3.51-8.46,4.815-13.76,4.815H360v-25h13
		v14h5.15c3.15,0,4.87-1.04,6.02-2.76c1-1.42,1.36-2.67,1.36-11.24H398.07z"/>
	<path id="XMLID_81_" class="st1" d="M675.21,29.965l11.04,21.085H671.7l-9.03-19H658v19h-12v-25h34.34
		C678.84,27.91,677,29.075,675.21,29.965z"/>
	<polygon id="XMLID_74_" class="st1" points="603,26.05 635,26.05 635,32.05 616,32.05 616,51.05 603,51.05 	"/>
	<polygon id="XMLID_70_" class="st1" points="776,26.05 776,51.05 765.06,51.05 748.89,26.05 763.46,26.05 763,26.08 763,26.05 	"/>
	<path id="XMLID_59_" class="st0" d="M441,12.05v-12h-34v26h31v-6h-19v-8H441z"/>
	<path id="XMLID_50_" class="st0" d="M470.51,0.05H450v26h34.74c1.86-2.3,3.18-5.55,3.18-9.4C487.92,8.26,481.83,0.05,470.51,0.05z
		 M469.93,22.05H463v-10h6.93c3.44,0,5.45,2.345,5.45,5.005C475.38,19.705,473.37,22.05,469.93,22.05z"/>
	<path id="XMLID_43_" class="st0" d="M533.13,0.05H513v26h34.36c1.86-2.3,3.18-5.55,3.18-9.4C550.54,8.26,544.45,0.05,533.13,0.05z
		 M532.55,22.05H525v-10h7.55c3.44,0,5.45,2.345,5.45,5.005C538,19.705,535.99,22.05,532.55,22.05z"/>
	<path id="XMLID_41_" class="st0" d="M594,12.05v-12h-34v26h31v-6h-19v-8H594z"/>
	<path id="XMLID_39_" class="st0" d="M638,12.05v-12h-35v26h32v-5h-19v-9H638z"/>
	<path id="XMLID_34_" class="st0" d="M666.11,0.05H646v26h34.34c1.86-2.3,3.18-5.55,3.18-9.4C683.52,8.26,677.43,0.05,666.11,0.05z
		 M665.54,22.05H658v-10h7.54c3.44,0,5.44,2.345,5.44,5.005C670.98,19.705,668.98,22.05,665.54,22.05z"/>
	<path id="XMLID_32_" class="st0" d="M727,12.05v-12h-34v26h31v-6h-19v-8H727z"/>
	<path id="XMLID_29_" class="st0" d="M763,0.05v26h13v-26H763z M736,0.05v26h13v-0.26l-0.11,0.26h14.57l-16.31-26H736z"/>
	<path id="XMLID_27_" class="st0" d="M804.04,0.215c-5.95,0-10.305,1.893-14.035,5.622C784.635,11.207,785,18.27,785,25.93v0.12h12
		v-0.12c0-9.31,0.905-11.1,2.055-12.61c0.93-1.21,2.708-1.935,4.997-1.935c4.16,0,5.788,2.665,6.578,5.665h12.75
		C821.52,5.05,813.71,0.215,804.04,0.215z"/>
	<path id="XMLID_26_" class="st1" d="M921.1,26.05c1.84,2.52,2.59,5.82,2.59,9.77c0,10.39-8.95,16.05-19.7,16.05
		c-7.81,0-14.19-1.43-19.35-6.73l8.03-8.03c2.65,2.65,7.31,3.59,11.39,3.59c4.94,0,7.31-1.65,7.31-4.59c0-1.22-0.29-2.22-1-3.01
		c-0.65-0.64-1.72-1.15-3.37-1.36l-6.16-0.86c-4.52-0.65-7.96-2.15-10.25-4.51c-0.1-0.1-0.2-0.21-0.29-0.32H921.1z"/>
	<polygon id="XMLID_25_" class="st1" points="843,40.05 865,40.05 865,51.05 830,51.05 830,26.05 861,26.05 861,31.05 843,31.05 	
		"/>
	<polygon id="XMLID_24_" class="st1" points="993,40.05 1015,40.05 1015,51.05 981,51.05 981,26.05 1012,26.05 1012,31.05 
		993,31.05 	"/>
	<rect id="XMLID_22_" x="1077" y="26.05" class="st1" width="13" height="25"/>
	<polygon id="XMLID_20_" class="st1" points="932,26.05 970,26.05 970,51.05 958,51.05 958,31.05 944,31.05 944,51.05 932,51.05 	
		"/>
	<path id="XMLID_19_" class="st1" d="M810.63,35.05h12.75c-1.86,11-9.67,16.72-19.34,16.72c-5.95,0-10.46-1.95-14.19-5.68
		c-5.34-5.34-5.16-12.41-5.16-20.04h12.54c0.01,9.22,0.79,11,1.94,12.5c0.93,1.21,2.65,2.05,4.94,2.05
		C808.27,40.6,809.84,38.05,810.63,35.05z"/>
	<polygon id="XMLID_18_" class="st1" points="1037,40.05 1059,40.05 1059,51.05 1024,51.05 1024,26.05 1056,26.05 1056,31.05 
		1037,31.05 	"/>
	<path id="XMLID_14_" class="st0" d="M865,12.05v-12h-35v26h31v-6h-18v-8H865z"/>
	<path id="XMLID_12_" class="st0" d="M909.86,20.42l-6.16-0.86c-1.79-0.22-2.86-0.86-3.51-1.51c-0.79-0.79-1-1.72-1-2.36
		c0-2.22,1.79-4.73,6.16-4.73c2.22,0,6.45-0.22,9.67,3.01l7.89-7.88C918.53,1.72,913.02,0,905.71,0c-11.61,0-18.63,6.8-18.63,16.12
		c0,4.18,1.05,7.52,3.22,9.93h30.8c-0.35-0.5-0.75-0.97-1.2-1.4C917.75,22.5,914.45,21.06,909.86,20.42z"/>
	<path id="XMLID_10_" class="st0" d="M958,0.05v20h-14v-20h-12v26h38v-26H958z"/>
	<path id="XMLID_6_" class="st0" d="M1015,12.05v-12h-34v26h31v-6h-19v-8H1015z"/>
	<path id="XMLID_4_" class="st0" d="M1059,12.05v-12h-35v26h32v-6h-19v-8H1059z"/>
	<path id="XMLID_2_" class="st0" d="M1065,0.05v12h12v14h13v-14h12v-12H1065z"/>
</g>
</svg>