<!-- Generator: Adobe Illustrator 21.0.0, SVG Export Plug-In  -->
<svg version="1.1"
	 xmlns="http://www.w3.org/2000/svg" xmlns:xlink="http://www.w3.org/1999/xlink" xmlns:a="http://ns.adobe.com/AdobeSVGViewerExtensions/3.0/"
	 x="0px" y="0px" width="475.074px" height="54.775px" viewBox="0 0 475.074 54.775"
	 style="enable-background:new 0 0 475.074 54.775;" xml:space="preserve">
<style type="text/css">
	.st0{fill:#494949;}
	.st1{font-family:'DIN-Black';}
	.st2{font-size:51.8703px;}
	.st3{letter-spacing:-2;}
	.st4{letter-spacing:-1;}
</style>
<defs>
</defs>
<g id="XMLID_1_">
	<g>
		<path class="st0" d="M18.931,44.401h-6.743L0,7.474h9.388l6.224,20.643l6.12-20.643h9.439L18.931,44.401z"/>
		<path class="st0" d="M39.421,33.198c0,2.282,1.763,4.357,4.927,4.357c2.957,0,4.253-0.83,5.757-2.334l5.083,5.082
			c-2.853,2.853-5.653,4.409-10.84,4.409c-6.172,0-13.277-2.23-13.277-14.263c0-9.129,5.187-14.263,12.5-14.263
			c8.091,0,12.551,5.912,12.551,13.225v3.786H39.421z M47.252,25.367c-0.519-1.193-1.66-2.179-3.683-2.179
			c-2.022,0-3.164,0.985-3.683,2.179c-0.363,0.726-0.466,1.504-0.466,2.178h8.298C47.719,26.871,47.615,26.093,47.252,25.367z"/>
		<path class="st0" d="M76.299,25.315c-0.83-0.83-1.608-1.452-3.06-1.452c-1.141,0-3.423,0.674-3.423,3.838v16.7H61.31V16.498h8.298
			v2.282c1.245-1.245,3.682-2.593,6.586-2.593c2.749,0,4.616,0.674,6.535,2.593L76.299,25.315z"/>
		<path class="st0" d="M95.232,44.401c-6.172,0-8.662-4.408-8.662-8.246V24.122h-2.542v-6.535h2.542V9.601h8.506v7.986h4.409v6.535
			h-4.409v11.41c0,1.09,0.57,1.712,1.711,1.712h2.697v7.157H95.232z"/>
		<path class="st0" d="M111.882,33.198c0,2.282,1.763,4.357,4.927,4.357c2.957,0,4.253-0.83,5.757-2.334l5.083,5.082
			c-2.853,2.853-5.653,4.409-10.84,4.409c-6.172,0-13.277-2.23-13.277-14.263c0-9.129,5.187-14.263,12.5-14.263
			c8.091,0,12.551,5.912,12.551,13.225v3.786H111.882z M119.714,25.367c-0.519-1.193-1.66-2.179-3.683-2.179
			s-3.164,0.985-3.682,2.179c-0.363,0.726-0.467,1.504-0.467,2.178h8.298C120.181,26.871,120.077,26.093,119.714,25.367z"/>
		<path class="st0" d="M149.175,44.401l-4.253-7.054l-4.149,7.054h-10.217l9.699-14.263l-9.335-13.641h10.217l3.786,6.742
			l3.89-6.742h10.217l-9.335,13.641l9.699,14.263H149.175z"/>
		<path class="st0" d="M167.279,48.239h-7.883l14.781-44.604h7.884L167.279,48.239z"/>
		<path class="st0" d="M194.563,15.564v6.483h13.692v8.091h-13.692v14.263h-9.076V7.474h25.103v8.091H194.563z"/>
		<path class="st0" d="M229.314,25.315c-0.83-0.83-1.608-1.452-3.06-1.452c-1.141,0-3.423,0.674-3.423,3.838v16.7h-8.505V16.498
			h8.298v2.282c1.245-1.245,3.682-2.593,6.586-2.593c2.749,0,4.616,0.674,6.535,2.593L229.314,25.315z"/>
		<path class="st0" d="M251.982,44.401v-2.282c-1.712,1.712-3.268,2.542-6.224,2.542c-2.8,0-5.134-0.934-6.69-2.49
			c-1.608-1.607-2.438-3.941-2.438-6.534c0-4.201,2.853-8.092,9.491-8.092h5.653v-0.726c0-2.541-1.245-3.475-4.201-3.475
			c-2.178,0-3.112,0.519-4.46,1.867l-5.29-5.291c2.853-2.853,5.446-3.733,10.166-3.733c7.987,0,12.292,3.318,12.292,10.113v18.101
			H251.982z M251.774,33.198h-4.305c-1.66,0-2.697,0.934-2.697,2.23c0,1.245,0.934,2.334,2.801,2.334
			c1.66,0,2.438-0.155,3.371-1.037c0.623-0.57,0.83-1.452,0.83-2.801V33.198z"/>
		<path class="st0" d="M276.309,53.737c-4.356,0-7.624-0.778-10.477-3.631l5.29-5.29c1.297,1.297,2.853,1.764,4.771,1.764
			c3.579,0,4.512-2.438,4.512-4.253v-2.023c-1.556,1.557-3.423,2.334-6.016,2.334c-2.697,0-4.927-0.882-6.535-2.489
			c-2.541-2.541-2.593-5.653-2.593-10.736c0-5.082,0.052-8.194,2.593-10.735c1.608-1.608,3.89-2.489,6.587-2.489
			c2.853,0,4.512,0.881,6.224,2.593v-2.282h8.247v25.881C288.912,48.966,283.933,53.737,276.309,53.737z M277.087,23.863
			c-3.112,0-3.319,2.696-3.319,5.549s0.208,5.55,3.319,5.55s3.319-2.697,3.319-5.55S280.199,23.863,277.087,23.863z"/>
		<path class="st0" d="M317.908,44.713c-5.653,0-10.269-1.038-14.003-4.876l5.809-5.809c1.919,1.919,5.29,2.594,8.246,2.594
			c3.579,0,5.291-1.193,5.291-3.319c0-0.882-0.208-1.608-0.726-2.179c-0.467-0.467-1.245-0.83-2.438-0.985l-4.46-0.622
			c-3.268-0.467-5.757-1.557-7.417-3.268c-1.711-1.764-2.541-4.253-2.541-7.417c0-6.742,5.083-11.67,13.484-11.67
			c5.291,0,9.284,1.245,12.448,4.409l-5.705,5.705c-2.334-2.334-5.394-2.179-7.002-2.179c-3.164,0-4.46,1.815-4.46,3.423
			c0,0.467,0.155,1.142,0.726,1.712c0.467,0.467,1.245,0.934,2.541,1.089l4.46,0.623c3.319,0.467,5.705,1.504,7.261,3.06
			c1.971,1.919,2.749,4.668,2.749,8.091C332.17,40.615,325.688,44.713,317.908,44.713z"/>
		<path class="st0" d="M352.66,44.401V27.493c0-3.008-2.178-3.63-3.268-3.63c-1.089,0-3.268,0.622-3.268,3.63v16.908h-8.505V7.474
			h8.505V18.78c1.764-1.764,3.994-2.593,6.12-2.593c6.017,0,8.921,4.46,8.921,10.113v18.101H352.66z"/>
		<path class="st0" d="M380.877,44.401v-2.282c-1.712,1.712-3.268,2.542-6.224,2.542c-2.8,0-5.134-0.934-6.69-2.49
			c-1.608-1.607-2.438-3.941-2.438-6.534c0-4.201,2.853-8.092,9.491-8.092h5.653v-0.726c0-2.541-1.245-3.475-4.201-3.475
			c-2.178,0-3.112,0.519-4.46,1.867l-5.29-5.291c2.853-2.853,5.446-3.733,10.166-3.733c7.987,0,12.292,3.318,12.292,10.113v18.101
			H380.877z M380.67,33.198h-4.305c-1.66,0-2.697,0.934-2.697,2.23c0,1.245,0.934,2.334,2.801,2.334c1.66,0,2.438-0.155,3.371-1.037
			c0.623-0.57,0.83-1.452,0.83-2.801V33.198z"/>
		<path class="st0" d="M409.976,44.401v-2.282c-1.711,1.712-3.527,2.594-6.431,2.594c-2.697,0-5.187-0.934-6.794-2.542
			c-2.749-2.749-2.593-7.624-2.593-11.721c0-4.098-0.155-8.973,2.593-11.722c1.608-1.608,4.045-2.541,6.743-2.541
			c2.749,0,4.667,0.777,6.224,2.333V7.474h8.506v36.928H409.976z M406.19,23.863c-3.164,0-3.527,2.541-3.527,6.587
			c0,4.045,0.363,6.586,3.527,6.586c3.164,0,3.527-2.541,3.527-6.586C409.717,26.404,409.354,23.863,406.19,23.863z"/>
		<path class="st0" d="M431.761,33.198c0,2.282,1.764,4.357,4.928,4.357c2.956,0,4.253-0.83,5.757-2.334l5.083,5.082
			c-2.853,2.853-5.653,4.409-10.84,4.409c-6.172,0-13.278-2.23-13.278-14.263c0-9.129,5.187-14.263,12.5-14.263
			c8.091,0,12.551,5.912,12.551,13.225v3.786H431.761z M439.593,25.367c-0.519-1.193-1.66-2.179-3.683-2.179
			s-3.164,0.985-3.683,2.179c-0.363,0.726-0.467,1.504-0.467,2.178h8.299C440.06,26.871,439.957,26.093,439.593,25.367z"/>
		<path class="st0" d="M468.639,25.315c-0.829-0.83-1.607-1.452-3.06-1.452c-1.141,0-3.423,0.674-3.423,3.838v16.7h-8.506V16.498
			h8.298v2.282c1.245-1.245,3.683-2.593,6.587-2.593c2.749,0,4.616,0.674,6.535,2.593L468.639,25.315z"/>
	</g>
</g>
</svg>